<svg width="350" height="150" viewBox="0 0 350 150" fill="none" xmlns="http://www.w3.org/2000/svg">
<path d="M75.4281 44C76.1472 44 76.7629 44.229 77.2752 44.687C77.7874 45.1443 78.0435 45.6947 78.0435 46.337V67.9969C78.0435 68.6392 77.7874 69.1895 77.2752 69.6469C76.7629 70.1049 76.1472 70.3335 75.4281 70.3335C74.7089 70.3335 74.0932 70.1049 73.581 69.6469C73.0688 69.1895 72.8127 68.6392 72.8127 67.9969V66.0979C69.5435 68.9215 65.6205 70.3335 61.0435 70.3335C56.6168 70.3335 52.7981 69.0082 49.587 66.3579V78.2825C49.6476 78.2271 49.7089 78.1718 49.7703 78.1168C53.3421 74.9278 57.6546 73.3335 62.7065 73.3335C67.7585 73.3335 72.0713 74.9278 75.6428 78.1168C79.2143 81.3058 81 85.1558 81 89.6668C81 90.3084 80.7443 90.8577 80.2324 91.3147C79.7206 91.7714 79.1052 92.0001 78.3868 92.0001H49.8686L49.9111 92.1911C50.4166 94.3487 51.6 96.2587 53.4618 97.921C56.0096 100.196 59.0914 101.333 62.7065 101.333C65.9735 101.333 68.7825 100.41 71.1345 98.5624C71.6138 98.232 72.1582 98.0667 72.7679 98.0667C73.4867 98.0667 74.1021 98.295 74.6135 98.752C75.1254 99.209 75.3811 99.7584 75.3811 100.4C75.3811 101.042 75.1309 101.596 74.6298 102.063C71.2546 104.688 67.2799 106 62.7065 106C57.6542 106 53.3417 104.406 49.7703 101.217C48.6823 100.245 47.7598 99.212 47.003 98.1174C46.2457 99.214 45.3214 100.249 44.2297 101.223C40.6579 104.408 36.3454 106 31.2935 106C26.2415 106 21.9287 104.408 18.3572 101.223C14.7857 98.0377 13 94.1927 13 89.6868C13 85.1814 14.7857 81.3361 18.3572 78.1511C21.9291 74.9665 26.2412 73.3738 31.2935 73.3738C36.232 73.3738 40.4631 74.8955 43.9869 77.9385V59.1769C43.9869 56.2779 42.8368 53.8019 40.5374 51.749C38.2383 49.697 35.4648 48.6703 32.2174 48.6703C28.97 48.6703 26.1964 49.6966 23.8974 51.7493C21.5979 53.8023 20.4482 56.2783 20.4482 59.1773V68.9749C20.4482 69.6169 20.1921 70.1665 19.6799 70.6239C19.1677 71.0812 18.552 71.3099 17.8328 71.3099C17.1136 71.3099 16.4979 71.0812 15.9857 70.6239C15.4735 70.1665 15.2174 69.6169 15.2174 68.9749V46.335C15.2174 45.6933 15.4735 45.1433 15.9857 44.6863C16.4979 44.229 17.1133 44 17.8328 44C18.552 44 19.1677 44.229 19.6799 44.6863C20.1921 45.1433 20.4482 45.693 20.4482 46.3353V48.2323C23.7174 45.411 27.6403 44 32.2174 44C36.9035 44 40.9081 45.484 44.232 48.4513C46.7875 50.733 48.3157 53.1372 48.9513 56.3746C49.587 59.612 50.424 60.5232 52.7235 62.5776C55.0225 64.6322 57.7961 65.6595 61.0435 65.6595C64.2908 65.6595 67.0644 64.6322 69.3635 62.5776C71.6629 60.5232 72.8127 58.0449 72.8127 55.1433V46.337C72.8127 45.6943 73.0688 45.144 73.581 44.6863C74.0932 44.2287 74.7089 44 75.4281 44ZM31.2935 78.0351C27.6784 78.0351 24.597 79.1711 22.0488 81.4435C19.5007 83.7154 18.2268 86.4634 18.2268 89.6871C18.2268 92.9107 19.5007 95.6587 22.0488 97.931C24.5966 100.203 27.6784 101.339 31.2935 101.339C34.9086 101.339 37.99 100.203 40.5382 97.931C43.0863 95.6587 44.3602 92.9111 44.3602 89.6871C44.3602 86.4634 43.0863 83.7154 40.5382 81.4435C37.9904 79.1711 34.9086 78.0351 31.2935 78.0351ZM62.7065 78.0001C59.0914 78.0001 56.01 79.1375 53.4618 81.4128C51.5453 83.1238 50.3475 85.0974 49.8686 87.3334H75.5445C75.0655 85.0974 73.8678 83.1235 71.9512 81.4128C69.4034 79.1375 66.3216 78.0001 62.7065 78.0001Z" fill="#3C2947"/>
<path d="M115.058 60.9C115.746 60.9 116.305 61.1293 116.735 61.588C117.165 62.0467 117.38 62.62 117.38 63.308V88.377C117.38 89.1223 117.122 89.753 116.606 90.269C116.119 90.7563 115.502 91 114.757 91C114.356 91 113.954 90.9427 113.553 90.828C113.18 90.6847 112.908 90.4983 112.736 90.269L96.955 70.231V88.592C96.955 89.28 96.7257 89.8533 96.267 90.312C95.837 90.7707 95.2637 91 94.547 91C93.859 91 93.3 90.7707 92.87 90.312C92.44 89.8533 92.225 89.28 92.225 88.592V63.523C92.225 62.7777 92.4687 62.1613 92.956 61.674C93.472 61.158 94.1027 60.9 94.848 60.9C95.278 60.9 95.6937 60.986 96.095 61.158C96.525 61.33 96.8403 61.5593 97.041 61.846L112.693 81.798V63.308C112.693 62.62 112.908 62.0467 113.338 61.588C113.797 61.1293 114.37 60.9 115.058 60.9ZM140.486 67.995C141.231 67.995 141.848 68.253 142.335 68.769C142.822 69.2563 143.066 69.8727 143.066 70.618V81.54C143.066 84.636 142.206 87.0583 140.486 88.807C138.795 90.5557 136.372 91.43 133.219 91.43C130.066 91.43 127.643 90.5557 125.952 88.807C124.261 87.0583 123.415 84.636 123.415 81.54V70.618C123.415 69.8727 123.659 69.2563 124.146 68.769C124.633 68.253 125.25 67.995 125.995 67.995C126.74 67.995 127.357 68.253 127.844 68.769C128.331 69.2563 128.575 69.8727 128.575 70.618V81.54C128.575 83.2887 128.962 84.593 129.736 85.453C130.51 86.2843 131.671 86.7 133.219 86.7C134.796 86.7 135.971 86.2843 136.745 85.453C137.519 84.593 137.906 83.2887 137.906 81.54V70.618C137.906 69.8727 138.15 69.2563 138.637 68.769C139.124 68.253 139.741 67.995 140.486 67.995ZM175.183 67.565C178.021 67.565 179.985 68.4393 181.074 70.188C182.164 71.908 182.708 74.3017 182.708 77.369V88.377C182.708 89.1223 182.465 89.753 181.977 90.269C181.49 90.7563 180.874 91 180.128 91C179.383 91 178.767 90.7563 178.279 90.269C177.792 89.753 177.548 89.1223 177.548 88.377V77.369C177.548 75.7923 177.233 74.5597 176.602 73.671C176 72.7537 174.925 72.295 173.377 72.295C171.772 72.295 170.511 72.7823 169.593 73.757C168.705 74.703 168.26 75.907 168.26 77.369V88.377C168.26 89.1223 168.017 89.753 167.529 90.269C167.042 90.7563 166.426 91 165.68 91C164.935 91 164.319 90.7563 163.831 90.269C163.344 89.753 163.1 89.1223 163.1 88.377V77.369C163.1 75.7923 162.785 74.5597 162.154 73.671C161.552 72.7537 160.477 72.295 158.929 72.295C157.324 72.295 156.063 72.7823 155.145 73.757C154.257 74.703 153.812 75.907 153.812 77.369V88.377C153.812 89.1223 153.569 89.753 153.081 90.269C152.594 90.7563 151.978 91 151.232 91C150.487 91 149.871 90.7563 149.383 90.269C148.896 89.753 148.652 89.1223 148.652 88.377V70.618C148.652 69.8727 148.896 69.2563 149.383 68.769C149.871 68.253 150.487 67.995 151.232 67.995C151.978 67.995 152.594 68.253 153.081 68.769C153.569 69.2563 153.812 69.8727 153.812 70.618V71.306C154.586 70.274 155.561 69.3997 156.736 68.683C157.94 67.9377 159.273 67.565 160.735 67.565C164.347 67.565 166.655 69.1417 167.658 72.295C168.318 71.091 169.307 70.0017 170.625 69.027C171.973 68.0523 173.492 67.565 175.183 67.565ZM193.883 88.377C193.883 89.1223 193.625 89.753 193.109 90.269C192.622 90.7563 192.005 91 191.26 91C190.543 91 189.941 90.7563 189.454 90.269C188.967 89.753 188.723 89.1223 188.723 88.377V61.803C188.723 61.0577 188.967 60.4413 189.454 59.954C189.97 59.438 190.601 59.18 191.346 59.18C192.063 59.18 192.665 59.438 193.152 59.954C193.639 60.4413 193.883 61.0577 193.883 61.803V88.377ZM201.861 80.379C201.116 80.379 200.485 80.1353 199.969 79.648C199.482 79.1607 199.238 78.5443 199.238 77.799C199.238 77.0823 199.482 76.4803 199.969 75.993C200.485 75.5057 201.116 75.262 201.861 75.262H209.343C210.088 75.262 210.705 75.52 211.192 76.036C211.708 76.5233 211.966 77.1397 211.966 77.885C211.966 78.6017 211.708 79.2037 211.192 79.691C210.705 80.1497 210.088 80.379 209.343 80.379H201.861Z" fill="#3C2947"/>
<path d="M240.969 86.786C241.341 87.0153 241.628 87.3163 241.829 87.689C242.058 88.0617 242.173 88.4487 242.173 88.85C242.173 89.366 242.001 89.839 241.657 90.269C241.227 90.785 240.567 91.043 239.679 91.043C238.991 91.043 238.36 90.8853 237.787 90.57C235.723 89.3947 234.691 87.001 234.691 83.389C234.691 82.357 234.347 81.54 233.659 80.938C232.999 80.336 232.039 80.035 230.778 80.035H222.737V88.377C222.737 89.151 222.522 89.7817 222.092 90.269C221.69 90.7563 221.146 91 220.458 91C219.626 91 218.895 90.7563 218.265 90.269C217.663 89.753 217.362 89.1223 217.362 88.377V63.523C217.362 62.7777 217.605 62.1613 218.093 61.674C218.609 61.158 219.239 60.9 219.985 60.9H232.369C233.859 60.9 235.264 61.3013 236.583 62.104C237.901 62.9067 238.948 64.0103 239.722 65.415C240.524 66.8197 240.926 68.3963 240.926 70.145C240.926 71.5783 240.539 72.983 239.765 74.359C238.991 75.7063 237.987 76.7813 236.755 77.584C238.561 78.8453 239.55 80.5367 239.722 82.658C239.808 83.1167 239.851 83.561 239.851 83.991C239.965 84.8797 240.08 85.5247 240.195 85.926C240.309 86.2987 240.567 86.5853 240.969 86.786ZM232.154 75.606C232.67 75.606 233.171 75.3623 233.659 74.875C234.146 74.3877 234.547 73.7427 234.863 72.94C235.178 72.1087 235.336 71.22 235.336 70.274C235.336 69.4713 235.178 68.7403 234.863 68.081C234.547 67.393 234.146 66.8483 233.659 66.447C233.171 66.0457 232.67 65.845 232.154 65.845H222.737V75.606H232.154ZM266.882 78.96C266.854 79.648 266.581 80.207 266.065 80.637C265.549 81.067 264.947 81.282 264.259 81.282H250.069C250.413 82.9733 251.202 84.3063 252.434 85.281C253.667 86.227 255.057 86.7 256.605 86.7C257.781 86.7 258.698 86.5997 259.357 86.399C260.017 86.1697 260.533 85.9403 260.905 85.711C261.307 85.453 261.579 85.281 261.722 85.195C262.238 84.937 262.726 84.808 263.184 84.808C263.786 84.808 264.302 85.023 264.732 85.453C265.162 85.883 265.377 86.3847 265.377 86.958C265.377 87.732 264.976 88.4343 264.173 89.065C263.371 89.7243 262.296 90.2833 260.948 90.742C259.601 91.2007 258.239 91.43 256.863 91.43C254.455 91.43 252.348 90.9283 250.542 89.925C248.765 88.9217 247.389 87.5457 246.414 85.797C245.44 84.0197 244.952 82.0273 244.952 79.82C244.952 77.3547 245.468 75.1903 246.5 73.327C247.532 71.4637 248.894 70.0447 250.585 69.07C252.277 68.0667 254.083 67.565 256.003 67.565C257.895 67.565 259.673 68.081 261.335 69.113C263.027 70.145 264.374 71.5353 265.377 73.284C266.381 75.0327 266.882 76.9247 266.882 78.96ZM256.003 72.295C252.678 72.295 250.714 73.8573 250.112 76.982H261.378V76.681C261.264 75.477 260.676 74.445 259.615 73.585C258.555 72.725 257.351 72.295 256.003 72.295ZM289.973 67.565C290.718 67.565 291.334 67.8087 291.822 68.296C292.309 68.7833 292.553 69.414 292.553 70.188V88.377C292.553 89.1223 292.309 89.753 291.822 90.269C291.334 90.7563 290.718 91 289.973 91C289.227 91 288.611 90.7563 288.124 90.269C287.665 89.7817 287.421 89.1653 287.393 88.42C286.676 89.2513 285.701 89.968 284.469 90.57C283.265 91.1433 281.989 91.43 280.642 91.43C278.664 91.43 276.872 90.9283 275.267 89.925C273.661 88.893 272.386 87.474 271.44 85.668C270.522 83.862 270.064 81.8123 270.064 79.519C270.064 77.2257 270.522 75.176 271.44 73.37C272.357 71.5353 273.604 70.1163 275.181 69.113C276.786 68.081 278.549 67.565 280.47 67.565C281.846 67.565 283.136 67.823 284.34 68.339C285.544 68.8263 286.561 69.457 287.393 70.231V70.188C287.393 69.4427 287.636 68.8263 288.124 68.339C288.611 67.823 289.227 67.565 289.973 67.565ZM281.287 86.7C283.15 86.7 284.669 86.0263 285.845 84.679C287.02 83.303 287.608 81.583 287.608 79.519C287.608 77.455 287.02 75.735 285.845 74.359C284.669 72.983 283.15 72.295 281.287 72.295C279.452 72.295 277.947 72.983 276.772 74.359C275.596 75.735 275.009 77.455 275.009 79.519C275.009 81.583 275.582 83.303 276.729 84.679C277.904 86.0263 279.423 86.7 281.287 86.7ZM308.164 67.565C310.6 67.565 312.564 67.952 314.055 68.726C315.545 69.4713 316.291 70.4747 316.291 71.736C316.291 72.3667 316.104 72.9257 315.732 73.413C315.359 73.8717 314.872 74.101 314.27 74.101C313.811 74.101 313.438 74.0437 313.152 73.929C312.865 73.7857 312.578 73.6137 312.292 73.413C312.034 73.1837 311.776 72.9973 311.518 72.854C311.231 72.7107 310.801 72.5817 310.228 72.467C309.683 72.3523 309.239 72.295 308.895 72.295C306.745 72.295 305.053 72.9687 303.821 74.316C302.617 75.6347 302.015 77.369 302.015 79.519C302.015 81.583 302.631 83.303 303.864 84.679C305.096 86.0263 306.673 86.7 308.594 86.7C309.998 86.7 311.045 86.528 311.733 86.184C311.905 86.098 312.134 85.9547 312.421 85.754C312.736 85.5247 313.023 85.3527 313.281 85.238C313.539 85.1233 313.854 85.066 314.227 85.066C314.943 85.066 315.502 85.2953 315.904 85.754C316.334 86.2127 316.549 86.8003 316.549 87.517C316.549 88.205 316.147 88.85 315.345 89.452C314.542 90.054 313.481 90.5413 312.163 90.914C310.844 91.258 309.439 91.43 307.949 91.43C305.741 91.43 303.792 90.914 302.101 89.882C300.438 88.85 299.148 87.431 298.231 85.625C297.313 83.7903 296.855 81.755 296.855 79.519C296.855 77.197 297.328 75.133 298.274 73.327C299.248 71.521 300.596 70.1163 302.316 69.113C304.036 68.081 305.985 67.565 308.164 67.565ZM331.368 86.141C331.77 86.141 332.128 86.3417 332.443 86.743C332.787 87.1157 332.959 87.6173 332.959 88.248C332.959 89.022 332.529 89.6813 331.669 90.226C330.838 90.742 329.892 91 328.831 91C327.054 91 325.549 90.6273 324.316 89.882C323.112 89.108 322.51 87.4883 322.51 85.023V73.155H320.532C319.844 73.155 319.271 72.9257 318.812 72.467C318.354 72.0083 318.124 71.435 318.124 70.747C318.124 70.0877 318.354 69.543 318.812 69.113C319.271 68.6543 319.844 68.425 320.532 68.425H322.51V65.673C322.51 64.9277 322.754 64.3113 323.241 63.824C323.757 63.308 324.388 63.05 325.133 63.05C325.85 63.05 326.452 63.308 326.939 63.824C327.427 64.3113 327.67 64.9277 327.67 65.673V68.425H330.723C331.411 68.425 331.985 68.6543 332.443 69.113C332.902 69.5717 333.131 70.145 333.131 70.833C333.131 71.4923 332.902 72.0513 332.443 72.51C331.985 72.94 331.411 73.155 330.723 73.155H327.67V84.808C327.67 85.41 327.828 85.8543 328.143 86.141C328.459 86.399 328.889 86.528 329.433 86.528C329.663 86.528 329.978 86.4707 330.379 86.356C330.723 86.2127 331.053 86.141 331.368 86.141Z" fill="#B256DE"/>
</svg>
